<?xml version="1.0" encoding="utf-8"?>
<!-- Generator: Adobe Illustrator 19.0.1, SVG Export Plug-In . SVG Version: 6.00 Build 0)  -->
<svg version="1.1" id="Слой_1" xmlns="http://www.w3.org/2000/svg" xmlns:xlink="http://www.w3.org/1999/xlink" x="0px" y="0px"
	 viewBox="0 0 960 269" style="enable-background:new 0 0 960 269;" xml:space="preserve">
<g>
	<g>
		<path d="M430.8,83c16.3,0,30.2,6.1,41.6,18.3c11.4,12.2,17.2,27.7,17.2,46.5c0,19-5.7,34.6-17.2,46.7
			c-11.4,12.1-25.3,18.1-41.6,18.1c-15.2,0-27.7-4.5-37.4-13.4v6.7c0,1.7-1.3,3-3,3H358c-1.7,0-3-1.3-3-3V36.5c0-1.7,1.3-3,3-3h32.4
			c1.7,0,3,1.3,3,3v59.9C403.1,87.5,415.6,83,430.8,83z M422.9,179.5c8.5,0,15.4-2.9,20.9-8.8c5.4-5.8,8.2-13.5,8.2-22.9
			c0-9.3-2.7-16.8-8.2-22.8c-5.4-5.9-12.4-8.9-20.9-8.9c-8,0-14.9,3-20.8,9c-5.8,6-8.8,13.6-8.8,22.7c0,9.3,2.9,16.9,8.8,22.8
			C407.9,176.5,414.9,179.5,422.9,179.5z"/>
		<path d="M636.1,89.7V206c0,1.7-1.3,3-3,3h-32.4c-1.7,0-3-1.3-3-3v-6.7c-9.8,8.9-22.2,13.4-37.4,13.4c-16.3,0-30.2-6-41.6-18.1
			c-11.4-12.1-17.2-27.7-17.2-46.7c0-18.8,5.7-34.3,17.2-46.5C530.1,89.1,544,83,560.3,83c15.2,0,27.7,4.5,37.4,13.4v-6.7
			c0-1.7,1.3-3,3-3h32.4C634.8,86.7,636.1,88,636.1,89.7z M568.2,179.5c8,0,14.9-3,20.8-8.9c5.8-5.9,8.8-13.5,8.8-22.8
			c0-9.1-2.9-16.6-8.8-22.7c-5.8-6-12.8-9-20.8-9c-8.5,0-15.4,3-20.9,8.9c-5.4,5.9-8.2,13.5-8.2,22.8c0,9.4,2.7,17.1,8.2,22.9
			C552.8,176.6,559.8,179.5,568.2,179.5z"/>
		<path d="M739.3,83c14.1,0,25.4,4.7,33.9,14c8.6,9.3,12.8,21.6,12.8,36.9v72c0,1.7-1.3,3-3,3h-32.1c-1.7,0-3-1.3-3-3v-63.8
			c0-7.1-1.9-12.9-5.8-17.4c-3.8-4.5-8.8-6.7-14.9-6.7c-7.8,0-14,2.8-18.3,8.4c-4.4,5.6-6.6,14.2-6.6,25.7V206c0,1.7-1.3,3-3,3H667
			c-1.7,0-3-1.3-3-3V89.7c0-1.7,1.3-3,3-3h32.4c1.7,0,3,1.3,3,3v8.7C711.9,88.1,724.3,83,739.3,83z"/>
		<path d="M938.9,89.7v157.7c0,1.7-1.3,3-3,3h-32.4c-1.7,0-3-1.3-3-3v-48.2c-9.8,8.9-22.2,13.4-37.4,13.4c-16.3,0-30.2-6-41.6-18.1
			c-11.4-12.1-17.2-27.7-17.2-46.7c0-18.8,5.7-34.3,17.2-46.5C832.9,89.1,846.8,83,863.1,83c15.2,0,27.7,4.5,37.4,13.4v-6.7
			c0-1.7,1.3-3,3-3h32.4C937.6,86.7,938.9,88,938.9,89.7z M871,179.5c8,0,14.9-3,20.8-8.9c5.8-5.9,8.8-13.5,8.8-22.8
			c0-9.1-2.9-16.6-8.8-22.7c-5.8-6-12.8-9-20.8-9c-8.5,0-15.4,3-20.9,8.9c-5.4,5.9-8.2,13.5-8.2,22.8c0,9.4,2.7,17.1,8.2,22.9
			C855.6,176.6,862.5,179.5,871,179.5z"/>
	</g>
	<path d="M254,105.1c-11.4-11.4-26.6-17.7-42.7-17.7s-31.3,6.3-42.7,17.7l-22.8,22.8L123,105.1c-11.4-11.4-26.6-17.7-42.7-17.7
		s-31.3,6.3-42.7,17.7c-23.6,23.6-23.6,61.9,0,85.5c11.8,11.8,27.3,17.7,42.7,17.7c15.5,0,31-5.9,42.7-17.7l22.8-22.8l22.8,22.8
		c11.8,11.8,27.3,17.7,42.7,17.7s31-5.9,42.7-17.7C277.6,167,277.6,128.7,254,105.1z M100.2,167.9c-11,11-29,11-40,0
		c-11-11-11-29,0-40c5.3-5.3,12.5-8.3,20-8.3c7.6,0,14.7,2.9,20,8.3l20,20L100.2,167.9z M231.3,167.9c-11,11-29,11-40,0l-20-20
		l20-20c5.3-5.3,12.5-8.3,20-8.3s14.7,2.9,20,8.3C242.3,138.9,242.3,156.8,231.3,167.9z"/>
</g>
</svg>
