<?xml version="1.0" encoding="utf-8"?>
<!-- Generator: Adobe Illustrator 19.0.1, SVG Export Plug-In . SVG Version: 6.00 Build 0)  -->
<svg version="1.1" id="Слой_1" xmlns="http://www.w3.org/2000/svg" xmlns:xlink="http://www.w3.org/1999/xlink" x="0px" y="0px"
	 viewBox="0 0 470 517" style="enable-background:new 0 0 470 517;" xml:space="preserve">
<path d="M425.8,9c-3.3-1-6.7,0.9-7.7,4.1c-0.6,1.9-57,187.2-135.9,221.5c-34.2,14.9-62.3,19.6-85.9,13.7
	c10.8-75.2,6.9-146.7-13.2-188.6c-8.7-18.2-20.1-29.7-33.9-34.2c-20.7-6.7-33.4,1.2-40.4,8.9c-22.7,25.2-19.3,86.4,8.3,148.9
	c18.3,41.4,41.2,63.2,65.3,73c-6.2,39.1-16.3,78.7-30.1,114.9c-16.8,44.2-47.8,91.7-65,116.4L81.3,445L71,446.5l8.8,62.1l61.3-13.3
	l-2.2-10.2l-41,8.9c17.7-25.4,48.8-73.4,66-118.4c14-36.7,24.2-76.3,30.6-115.3c32.1,8,65.5-2.6,92.6-14.4
	c84.1-36.6,140.4-221.4,142.7-229.2C430.8,13.4,429,10,425.8,9z M184.3,244.1c-22.8-10.1-40.9-31.8-55.9-65.8
	c-28.7-64.9-27-117.4-10.5-135.7c4.4-4.9,10-7.4,16.6-7.4c3.4,0,7,0.6,10.9,1.9c10.4,3.4,19.4,12.7,26.6,27.8
	C190.8,103.8,194.3,172.2,184.3,244.1z"/>
</svg>
