<svg version="1.1" xmlns="http://www.w3.org/2000/svg" xmlns:xlink="http://www.w3.org/1999/xlink" x="0px" y="0px" width="57.7px" height="31.7px" viewBox="0 0 57.7 31.7" style="fill:#FDAF52;" xml:space="preserve"><path class="st0" d="M57.7,31.4c-6.7,0.8-17.5,0.2-27.9-4c-9.9-4-19.5-11.3-25.1-23.9L1.9,9.6c-0.2,0.5-0.8,0.7-1.3,0.5 C0.1,9.9-0.1,9.3,0.1,8.8l3.6-8.2C3.9,0.1,4.5-0.1,5,0.1l8.2,3.6C13.8,3.9,14,4.5,13.8,5c-0.2,0.5-0.8,0.7-1.3,0.5L6.5,2.9 c5.4,11.9,14.5,18.8,24,22.6c10.1,4.1,20.5,4.6,26.9,3.9L57.7,31.4z"/></svg>