<?xml version="1.0" encoding="utf-8"?>
<!-- Generator: Adobe Illustrator 19.0.1, SVG Export Plug-In . SVG Version: 6.00 Build 0)  -->
<svg version="1.1" id="Слой_1" xmlns="http://www.w3.org/2000/svg" xmlns:xlink="http://www.w3.org/1999/xlink" x="0px" y="0px"
	 viewBox="0 0 960 121" style="enable-background:new 0 0 960 121;" xml:space="preserve">
<path d="M945,18c-0.1-1.2-1.2-2.1-2.5-2c-1.2,0.1-2.1,1.2-2,2.5c0,0.2,1.6,18.1-11.6,32.8c-11.4,12.7-30.3,19.3-56.1,19.6
	c-32.6,0.3-91.8-2.1-149.1-4.4c-77.7-3.1-151.1-6.1-167.9-3.1c-24.7,4.4-65.3,17.9-75.5,41.8c-10.2-23.9-50.8-37.4-75.5-41.8
	c-16.8-3-90.2,0-167.9,3.1c-57.3,2.3-116.5,4.7-149.1,4.4c-25.7-0.3-44.6-6.8-56-19.5C18.6,36.6,20.1,18.6,20.1,18.4
	c0.1-1.2-0.8-2.3-2-2.5c-1.2-0.1-2.3,0.8-2.5,2c-0.1,0.8-1.8,20.1,12.8,36.3C40.7,68,60.7,75.1,87.8,75.4c32.7,0.3,92-2.1,149.3-4.4
	c74-3,150.6-6.1,166.9-3.2c24.5,4.4,71.2,19.7,74,46.3c0,0.1,0,0.1,0,0.2c-0.1,1.2,0.8,2.3,2.1,2.4c0.1,0,0.1,0,0.2,0c0,0,0,0,0,0
	c0,0,0,0,0,0c0.1,0,0.1,0,0.2,0c1.2-0.1,2.2-1.2,2.1-2.4c0-0.1,0-0.1,0-0.2c2.8-26.6,49.6-41.9,74-46.3C573,64.9,649.5,68,723.5,71
	c57.3,2.3,116.6,4.7,149.3,4.4c27.1-0.3,47.1-7.4,59.4-21.1C946.8,38.1,945.1,18.8,945,18z"/>
</svg>
