<svg version="1.1" xmlns="http://www.w3.org/2000/svg" xmlns:xlink="http://www.w3.org/1999/xlink" x="0px" y="0px" viewBox="0 0 188.2 87.5" preserveAspectRatio="none" style="overflow:visible;enable-background:new 0 0 188.2 87.5;" xml:space="preserve"><path style="fill:none;stroke:#066756;stroke-width:4;stroke-linecap:round;stroke-linejoin:round;stroke-miterlimit:10;" d="M155.5,6.2c0,0.1-2.4-0.7-2.5-0.8c-3-0.9-6.1-1.5-9.3-2.1c-7.9-1.4-16-1.5-24.1-1.3C87.7,3,51.7,8.3,23.2,26.1 c-9.6,6-24,17-20.7,31.2c1.4,5.9,7.2,10.3,11.6,13.1c10.7,6.8,23.1,10,35.2,12.1c35.7,6.1,77.8,2.9,111.3-13.9 c4.4-2.2,8.7-4.8,12.6-7.9c3.2-2.6,6.2-5.6,8.6-9.1c16.5-24.5-18.8-40.3-34.8-44.7c-5.5-1.5-7.1-1.7-12.7-2.7"/></svg>